<svg width="102" height="24" viewBox="0 0 102 24" fill="none" xmlns="http://www.w3.org/2000/svg">
<g clip-path="url(#clip0_35_316)">
<mask id="mask0_35_316" style="mask-type:luminance" maskUnits="userSpaceOnUse" x="0" y="0" width="102" height="24">
<path d="M101.248 0.14209H0.194336V23.8567H101.248V0.14209Z" fill="white"/>
</mask>
<g mask="url(#mask0_35_316)">
<path d="M101.248 21.9166C101.251 22.3034 101.138 22.6823 100.925 23.0051C100.711 23.3279 100.407 23.5802 100.049 23.73C99.6923 23.8798 99.2986 23.9203 98.9183 23.8464C98.538 23.7724 98.1883 23.5874 97.9135 23.3148C97.6386 23.0422 97.4511 22.6942 97.3745 22.315C97.298 21.9358 97.336 21.5425 97.4837 21.1848C97.6314 20.8272 97.8821 20.5214 98.204 20.3063C98.5259 20.0911 98.9046 19.9762 99.2921 19.9762C99.5487 19.973 99.8035 20.021 100.041 20.1172C100.279 20.2134 100.496 20.356 100.678 20.5367C100.86 20.7173 101.004 20.9324 101.102 21.1693C101.2 21.4062 101.25 21.6603 101.248 21.9166ZM100.888 21.9166C100.887 21.6016 100.793 21.294 100.617 21.0325C100.441 20.771 100.191 20.5674 99.8999 20.4474C99.6082 20.3275 99.2874 20.2965 98.9781 20.3585C98.6688 20.4205 98.3848 20.5725 98.1621 20.7956C97.9393 21.0186 97.7877 21.3025 97.7265 21.6115C97.6652 21.9205 97.6971 22.2407 97.818 22.5316C97.9389 22.8225 98.1435 23.0711 98.4058 23.246C98.6682 23.421 98.9766 23.5143 99.2921 23.5143C99.5032 23.5175 99.7128 23.4784 99.9084 23.3993C100.104 23.3202 100.282 23.2026 100.431 23.0536C100.581 22.9046 100.698 22.7272 100.778 22.5319C100.857 22.3366 100.897 22.1274 100.894 21.9166H100.888ZM99.4757 20.9408C99.8471 20.9408 100.138 21.1523 100.138 21.5246C100.142 21.6536 100.102 21.7801 100.025 21.8839C99.9484 21.9877 99.8389 22.0628 99.7143 22.0971L100.194 22.891H99.7539L99.3118 22.1267H98.9715V22.891H98.5901V20.9408H99.4757ZM98.9743 21.8461H99.398C99.5985 21.8461 99.7497 21.7446 99.7497 21.5443C99.7497 21.3441 99.6084 21.2524 99.398 21.2524H98.9743V21.8461Z" fill="#0075FF"/>
<path d="M94.54 8.0166H92.0204C91.6327 8.0166 91.3184 8.33038 91.3184 8.71745V9.7102C91.3184 10.0973 91.6327 10.411 92.0204 10.411H94.54C94.9277 10.411 95.2419 10.0973 95.2419 9.7102V8.71745C95.2419 8.33038 94.9277 8.0166 94.54 8.0166Z" fill="#0075FF"/>
<path d="M46.2783 11.3854H43.7756C43.6834 11.3844 43.5919 11.4021 43.5067 11.4374C43.4215 11.4727 43.3444 11.5249 43.28 11.5908C43.2155 11.6567 43.1652 11.7349 43.1319 11.8208C43.0986 11.9067 43.0832 11.9985 43.0864 12.0905V19.6024C42.263 20.4006 41.2264 21.1395 40.1205 21.1395C38.8494 21.1395 37.9752 20.3625 37.9752 18.4602V12.0722C37.9761 11.9811 37.9588 11.8908 37.9241 11.8066C37.8894 11.7224 37.8382 11.646 37.7734 11.5819C37.7085 11.5179 37.6315 11.4675 37.5468 11.4337C37.4621 11.4 37.3715 11.3835 37.2803 11.3854H34.7663C34.6752 11.3833 34.5847 11.3996 34.5 11.4333C34.4154 11.4671 34.3384 11.5175 34.2738 11.5816C34.2092 11.6458 34.1582 11.7223 34.1239 11.8066C34.0896 11.8909 34.0727 11.9812 34.0743 12.0722V18.463C34.0743 22.2549 36.1999 23.8286 39.2011 23.8286C40.8959 23.8286 42.0483 23.1236 43.0921 22.2591C43.0954 22.3155 43.0954 22.372 43.0921 22.4284V23.1489C43.0888 23.241 43.1043 23.3327 43.1375 23.4186C43.1708 23.5045 43.2212 23.5828 43.2856 23.6487C43.35 23.7146 43.4272 23.7668 43.5124 23.8021C43.5976 23.8374 43.689 23.855 43.7813 23.854H46.2783C46.3701 23.8545 46.461 23.8364 46.5457 23.8008C46.6303 23.7652 46.7068 23.7129 46.7707 23.6471C46.8346 23.5812 46.8844 23.5031 46.9173 23.4175C46.9501 23.3319 46.9653 23.2406 46.9619 23.1489V12.0863C46.9647 11.995 46.9491 11.9041 46.916 11.819C46.8829 11.7339 46.8329 11.6563 46.7691 11.5909C46.7053 11.5255 46.629 11.4736 46.5447 11.4383C46.4603 11.403 46.3697 11.385 46.2783 11.3854Z" fill="#0075FF"/>
<path d="M52.8744 18.6902C53.0326 20.5234 53.8475 21.3201 55.7089 21.3201C56.6623 21.3201 57.5012 21.0465 57.8868 20.5671C58.037 20.3752 58.2303 20.2214 58.4512 20.118C58.672 20.0146 58.9141 19.9646 59.1579 19.972H60.8117C60.9021 19.9705 60.9918 19.9872 61.0756 20.0211C61.1593 20.0551 61.2353 20.1056 61.299 20.1696C61.3627 20.2336 61.4128 20.3098 61.4463 20.3936C61.4798 20.4774 61.496 20.5671 61.4939 20.6573C61.4939 23.0363 59.0661 23.857 55.4364 23.857C51.3971 23.857 48.9707 21.6628 48.9707 17.5268C48.9707 13.3908 51.4225 11.167 55.4364 11.167C59.4728 11.167 61.8992 13.3386 61.8992 17.3632V18.0048C61.9017 18.0949 61.8859 18.1846 61.8527 18.2684C61.8196 18.3522 61.7697 18.4284 61.7062 18.4925C61.6427 18.5565 61.5669 18.6071 61.4833 18.641C61.3997 18.675 61.3101 18.6917 61.2199 18.6902H52.8744ZM52.8518 16.3366H58.0012C57.932 14.6233 57.1156 13.7053 55.4364 13.7053C53.8009 13.7053 52.9422 14.6233 52.849 16.3366H52.8518Z" fill="#0075FF"/>
<path d="M69.4094 23.8567C65.767 23.8567 63.455 23.0346 63.455 20.6557C63.4519 20.5665 63.467 20.4777 63.4991 20.3944C63.5313 20.3112 63.58 20.2353 63.6422 20.1713C63.7045 20.1073 63.779 20.0566 63.8614 20.022C63.9438 19.9875 64.0323 19.9699 64.1216 19.9703H65.7458C65.9854 19.964 66.223 20.0147 66.4391 20.1181C66.6552 20.2216 66.8436 20.3749 66.9886 20.5654C67.3657 21.0449 68.1891 21.3184 69.141 21.3184C71.0082 21.3184 71.631 20.8855 71.631 20.2397C71.631 18.343 63.4395 19.3936 63.4395 14.7753C63.4395 12.1919 65.9463 11.1597 69.0803 11.1597C72.7213 11.1597 75.0319 11.9846 75.0319 14.365C75.0347 14.4541 75.0196 14.543 74.9874 14.6262C74.9551 14.7094 74.9065 14.7853 74.8443 14.8493C74.7821 14.9134 74.7076 14.9643 74.6254 14.9991C74.5431 15.0339 74.4546 15.0517 74.3653 15.0517H72.7411C72.5016 15.0587 72.2639 15.0084 72.0479 14.9048C71.8319 14.8013 71.6439 14.6476 71.4996 14.4566C71.1211 13.9743 70.3006 13.7008 69.3458 13.7008C67.8135 13.7008 67.192 14.1337 67.192 14.7753C67.192 16.6762 75.3836 15.5777 75.3836 20.2397C75.3821 22.8287 72.8738 23.8567 69.4094 23.8567Z" fill="#0075FF"/>
<path d="M24.0446 16.5002C25.3552 16.5002 25.9851 15.9559 26.4357 14.997L27.4963 12.6124C27.6327 12.3066 27.8532 12.0458 28.1323 11.8603C28.4113 11.6749 28.7374 11.5723 29.0725 11.5647H31.1416C31.7277 11.5647 31.7983 12.0201 31.5243 12.611L30.1035 15.7486C29.6346 16.7498 28.7321 17.5479 27.7633 17.7524C28.6912 18.0246 29.4326 18.6634 30.1035 19.7562L31.972 22.8078C32.3307 23.4029 32.1754 23.857 31.5879 23.857H29.523C28.8013 23.857 28.194 23.4029 27.8353 22.8078L26.4357 20.5065C25.8312 19.5081 25.06 19.0286 24.0446 19.0286V23.1731C24.047 23.2625 24.0314 23.3515 23.9987 23.4347C23.9659 23.518 23.9167 23.5938 23.854 23.6576C23.7912 23.7215 23.7162 23.772 23.6335 23.8063C23.5507 23.8405 23.4619 23.8578 23.3723 23.857H20.8047C20.7149 23.858 20.6257 23.8409 20.5427 23.8067C20.4596 23.7726 20.3843 23.7221 20.3211 23.6583C20.258 23.5945 20.2084 23.5186 20.1752 23.4353C20.1421 23.3519 20.1261 23.2627 20.1282 23.1731V8.78947C20.1257 8.6997 20.1414 8.61035 20.1744 8.5268C20.2074 8.44326 20.257 8.36725 20.3202 8.30335C20.3834 8.23946 20.459 8.18899 20.5422 8.155C20.6255 8.121 20.7147 8.10418 20.8047 8.10555H23.3723C23.4619 8.10456 23.5509 8.12167 23.6337 8.15585C23.7166 8.19003 23.7916 8.24058 23.8544 8.30446C23.9172 8.36834 23.9664 8.44423 23.9991 8.52758C24.0318 8.61092 24.0472 8.70001 24.0446 8.78947V16.5002Z" fill="#0075FF"/>
<path d="M81.3375 16.4664C82.6482 16.4664 83.2781 15.9178 83.7286 14.9547L84.7893 12.5574C84.9249 12.2508 85.1451 11.989 85.4242 11.8027C85.7033 11.6164 86.0298 11.5133 86.3654 11.5054H88.4345C89.0206 11.5054 89.0913 11.9637 88.8187 12.5574L87.3979 15.7105C86.9276 16.716 86.0251 17.5183 85.0562 17.7228C85.9841 17.9978 86.7256 18.6394 87.3979 19.7379L89.2706 22.8008C89.6294 23.3987 89.474 23.8556 88.8865 23.8556H86.816C86.0943 23.8556 85.487 23.3987 85.1212 22.8008L83.7216 20.4881C83.1171 19.4855 82.3459 19.0032 81.3305 19.0032V23.1674C81.3333 23.2571 81.318 23.3465 81.2855 23.4302C81.2529 23.5138 81.2038 23.5901 81.141 23.6543C81.0782 23.7186 81.0031 23.7695 80.9202 23.8041C80.8372 23.8387 80.7481 23.8562 80.6582 23.8556H78.0977C78.0075 23.8564 77.9181 23.839 77.8349 23.8046C77.7516 23.7701 77.6761 23.7192 77.613 23.655C77.5498 23.5908 77.5003 23.5145 77.4673 23.4307C77.4344 23.3469 77.4187 23.2574 77.4211 23.1674V8.71615C77.4187 8.62632 77.4344 8.5369 77.4674 8.45328C77.5004 8.36966 77.55 8.29357 77.6131 8.22956C77.6763 8.16555 77.7518 8.11495 77.8351 8.0808C77.9183 8.04664 78.0076 8.02964 78.0977 8.03082H80.6653C80.755 8.02982 80.8441 8.04697 80.927 8.08124C81.01 8.11551 81.0851 8.16619 81.1479 8.23022C81.2107 8.29425 81.2599 8.37031 81.2925 8.45383C81.3251 8.53734 81.3404 8.62657 81.3375 8.71615V16.4664Z" fill="#0075FF"/>
<path d="M92.0216 23.8568C91.9282 23.8568 91.8357 23.8383 91.7494 23.8023C91.6632 23.7664 91.585 23.7137 91.5193 23.6473C91.4536 23.5809 91.4018 23.5022 91.3668 23.4157C91.3318 23.3291 91.3143 23.2365 91.3155 23.1432V12.1624C91.3143 12.0691 91.3318 11.9765 91.3668 11.8899C91.4018 11.8034 91.4536 11.7247 91.5193 11.6583C91.585 11.592 91.6632 11.5393 91.7494 11.5033C91.8357 11.4673 91.9282 11.4488 92.0216 11.4488H94.5822C94.6761 11.4473 94.7693 11.4647 94.8563 11.5001C94.9432 11.5355 95.0221 11.5882 95.0881 11.6549C95.1541 11.7216 95.2058 11.8009 95.2403 11.8881C95.2747 11.9754 95.2911 12.0686 95.2884 12.1624V23.1432C95.2911 23.237 95.2747 23.3302 95.2403 23.4175C95.2058 23.5047 95.1541 23.584 95.0881 23.6507C95.0221 23.7174 94.9432 23.7701 94.8563 23.8055C94.7693 23.8409 94.6761 23.8583 94.5822 23.8568H92.0216Z" fill="#0075FF"/>
</g>
<path d="M15.4165 13.9155C15.4165 14.2529 14.7696 20.1009 14.4638 22.9602C14.3746 23.8036 13.5225 23.8585 13.2932 23.8585H3.4465C2.42164 23.8585 2.05643 23.41 1.95734 22.8744C1.85259 22.3121 1.30901 16.8142 1.03722 14.8995L0.942383 13.9478C0.942383 13.4741 1.27645 13.0664 1.74075 13.0664H14.5672C14.6797 13.0664 14.791 13.0886 14.8948 13.1317C14.9986 13.1748 15.0927 13.2379 15.1718 13.3174C15.2508 13.3969 15.3131 13.4912 15.3551 13.5949C15.3971 13.6985 15.418 13.8094 15.4165 13.9211V13.9155Z" fill="url(#paint0_linear_35_316)"/>
<path d="M15.4235 8.10867H11.3431C11.3714 7.10368 11.8417 6.80063 12.8007 6.19031L15.0605 4.74554C15.3649 4.56318 15.6188 4.30776 15.7992 4.00251C15.9795 3.69726 16.0805 3.35186 16.0929 2.99773V0.849615C16.0929 0.23929 15.6494 0.0757853 15.0704 0.449309L12.0733 2.37895C11.0013 3.07385 10.3785 3.84767 10.096 4.80192C9.90536 3.79834 9.12856 2.85819 8.14838 2.36485L5.18241 0.883443C4.60051 0.601538 4.15703 0.672014 4.15279 1.27952L4.14573 3.42764C4.14804 3.76861 4.24477 4.10231 4.42523 4.39185C4.60569 4.6814 4.86285 4.91551 5.16829 5.06832L7.397 6.17057C8.31645 6.6329 8.84609 6.80768 8.86586 8.10726H0.833734C0.746881 8.1067 0.660772 8.12327 0.580351 8.15601C0.49993 8.18876 0.426781 8.23703 0.365103 8.29806C0.303425 8.35909 0.254432 8.43167 0.220938 8.51165C0.187443 8.59163 0.170106 8.67742 0.169922 8.7641V11.3858C0.170477 11.4723 0.188087 11.5577 0.221747 11.6374C0.255407 11.717 0.304458 11.7893 0.366099 11.85C0.42774 11.9108 0.500764 11.9588 0.581001 11.9914C0.661238 12.0239 0.747117 12.0404 0.833734 12.0398H15.4235C15.5104 12.041 15.5968 12.0249 15.6775 11.9926C15.7582 11.9603 15.8318 11.9123 15.8938 11.8515C15.9559 11.7908 16.0054 11.7183 16.0393 11.6384C16.0732 11.5585 16.091 11.4726 16.0915 11.3858V8.7641C16.0912 8.67718 16.0735 8.59119 16.0397 8.5111C16.0059 8.43101 15.9565 8.3584 15.8943 8.29746C15.8322 8.23652 15.7586 8.18847 15.6778 8.15606C15.597 8.12366 15.5106 8.10755 15.4235 8.10867Z" fill="url(#paint1_linear_35_316)"/>
<path style="mix-blend-mode:hard-light" opacity="0.4" d="M15.4235 8.10867H11.3431C11.3714 7.10368 11.8417 6.80063 12.8007 6.19031L15.0605 4.74554C15.3649 4.56318 15.6188 4.30776 15.7992 4.00251C15.9795 3.69726 16.0805 3.35186 16.0929 2.99773V0.849615C16.0929 0.23929 15.6494 0.0757853 15.0704 0.449309L12.0733 2.37895C11.0013 3.07385 10.3785 3.84767 10.096 4.80192C9.90536 3.79834 9.12856 2.85819 8.14838 2.36485L5.18241 0.883443C4.60051 0.601538 4.15703 0.672014 4.15279 1.27952L4.14573 3.42764C4.14804 3.76861 4.24477 4.10231 4.42523 4.39185C4.60569 4.6814 4.86285 4.91551 5.16829 5.06832L7.397 6.17057C8.31645 6.6329 8.84609 6.80768 8.86586 8.10726H0.833734C0.746881 8.1067 0.660772 8.12327 0.580351 8.15601C0.49993 8.18876 0.426781 8.23703 0.365103 8.29806C0.303425 8.35909 0.254432 8.43167 0.220938 8.51165C0.187443 8.59163 0.170106 8.67742 0.169922 8.7641V11.3858C0.170477 11.4723 0.188087 11.5577 0.221747 11.6374C0.255407 11.717 0.304458 11.7893 0.366099 11.85C0.42774 11.9108 0.500764 11.9588 0.581001 11.9914C0.661238 12.0239 0.747117 12.0404 0.833734 12.0398H15.4235C15.5104 12.041 15.5968 12.0249 15.6775 11.9926C15.7582 11.9603 15.8318 11.9123 15.8938 11.8515C15.9559 11.7908 16.0054 11.7183 16.0393 11.6384C16.0732 11.5585 16.091 11.4726 16.0915 11.3858V8.7641C16.0912 8.67718 16.0735 8.59119 16.0397 8.5111C16.0059 8.43101 15.9565 8.3584 15.8943 8.29746C15.8322 8.23652 15.7586 8.18847 15.6778 8.15606C15.597 8.12366 15.5106 8.10755 15.4235 8.10867Z" fill="url(#paint2_linear_35_316)" fill-opacity="0.5"/>
</g>
<defs>
<linearGradient id="paint0_linear_35_316" x1="3.01777" y1="13.0825" x2="10.5945" y2="26.7152" gradientUnits="userSpaceOnUse">
<stop stop-color="#25A2FA"/>
<stop offset="0.483812" stop-color="#0075FF"/>
<stop offset="1" stop-color="#3F58EA"/>
</linearGradient>
<linearGradient id="paint1_linear_35_316" x1="14.9507" y1="11.9993" x2="1.72713" y2="-0.302262" gradientUnits="userSpaceOnUse">
<stop stop-color="#00BBE9"/>
<stop offset="0.1" stop-color="#01C3DC"/>
<stop offset="0.18" stop-color="#02CDCE"/>
<stop offset="0.24" stop-color="#09D1C0"/>
<stop offset="0.37" stop-color="#1BDD9A"/>
<stop offset="0.55" stop-color="#38EF5F"/>
<stop offset="0.59" stop-color="#3FF350"/>
<stop offset="0.67" stop-color="#4BF550"/>
<stop offset="0.82" stop-color="#69F950"/>
<stop offset="1" stop-color="#95FF4F"/>
</linearGradient>
<linearGradient id="paint2_linear_35_316" x1="0.722157" y1="12.4246" x2="17.007" y2="1.82747" gradientUnits="userSpaceOnUse">
<stop stop-color="#01BDE6" stop-opacity="0"/>
<stop offset="0.1" stop-color="#06BEE2" stop-opacity="0.02"/>
<stop offset="0.23" stop-color="#14C2D7" stop-opacity="0.08"/>
<stop offset="0.36" stop-color="#2AC8C4" stop-opacity="0.17"/>
<stop offset="0.51" stop-color="#4AD0AA" stop-opacity="0.31"/>
<stop offset="0.65" stop-color="#73DB88" stop-opacity="0.48"/>
<stop offset="0.81" stop-color="#A5E85F" stop-opacity="0.69"/>
<stop offset="1" stop-color="#EEFB24"/>
</linearGradient>
<clipPath id="clip0_35_316">
<rect width="102" height="24" fill="white"/>
</clipPath>
</defs>
</svg>
