<svg width="10" height="11" viewBox="0 0 10 11" fill="none" xmlns="http://www.w3.org/2000/svg">
<path d="M6.875 0C6.2375 0 5.6875 0.4375 5.35 1.1C5.9125 1.775 6.25 2.7 6.25 3.7625C6.25 4.125 6.2125 4.45 6.1375 4.775C6.375 4.9125 6.6125 5.0125 6.875 5.0125C7.9125 5.0125 8.75 3.8875 8.75 2.5125C8.75 1.1375 7.9125 0.0125 6.875 0.0125V0ZM3.125 1.25C2.0875 1.25 1.25 2.375 1.25 3.75C1.25 5.125 2.0875 6.25 3.125 6.25C4.1625 6.25 5 5.125 5 3.75C5 2.375 4.1625 1.25 3.125 1.25ZM9.0625 5.2C8.525 5.8375 7.7875 6.225 6.95 6.25C7.2875 6.725 7.5 7.3 7.5 7.925V8.75H10V6.675C10 6.025 9.6125 5.4625 9.0625 5.1875V5.2ZM0.9375 6.45C0.3875 6.725 0 7.2875 0 7.9375V10.0125H6.25V7.9375C6.25 7.2875 5.8625 6.725 5.3125 6.45C4.75 7.1125 3.9875 7.5 3.125 7.5C2.2625 7.5 1.5 7.1 0.9375 6.45Z" fill="#0075FF"/>
</svg>
